# xmcd CD database file
#
# Track frame offsets:
#	150
#	10710
#	19022
#	26342
#	39267
#	45577
#	52635
#	65125
#	70035
#	76205
#	85597
#	95537
#	101742
#	104722
#	115815
#	130657
#	150445
#	166072
#	170915
#	183837
#	193242
#	208915
#	215400
#	221750
#	230712
#	237170
#	252077
#	259127
#	278945
#	299202
#	307230
#	317640
#	329450
#
# Disc length: 4521 seconds
#
# Revision: 0
# Processed by: cddbd v1.5.2PL0 Copyright (c) Steve Scherf et al.
# Submitted via: CDex 1.99.1
#
DISCID=db11a721
DTITLE=Various Artist - Texas Field Recordings 1934/1939
DYEAR=1900
DGENRE=Blues
TTITLE0=Pete Harris - Square Dance Calls
TTITLE1=Pete Harris - He Rambled
TTITLE2=Pete Harris - The Buffalo Skinners
TTITLE3=Pete Harris - Blind Lemon's Song
TTITLE4=Pete Harris - The Red Cross Store
TTITLE5=Pete Harris - Alabama Bound
TTITLE6=Pete Harris - Is You Mad At Me?
TTITLE7=Pete Harris - Thirty Days In Jail
TTITLE8=Pete Harris - Carrie
TTITLE9=Pete Harris - Jack O'Diamonds (1)
TTITLE10=Pete Harris - Jack O'Diamonds (2)
TTITLE11=Pete Harris - Jack And Betsy
TTITLE12=Pete Harris - Standing On The Border
TTITLE13=Tricky Sam - Stavin' Chain (1)
TTITLE14=Tricky Sam - Stavin' Chain (2)
TTITLE15=Tricky Sam - Ella Speed
TTITLE16=Augustus 'Track Horse' Haggerty - I Met You Mama
TTITLE17=Augustus 'Track Horse' Haggerty - I Feel That Old Black Woman Is A Jinx To Me
TTITLE18=Augustus 'Track Horse' Haggerty - Police Special
TTITLE19=Augustus 'Track Horse' Haggerty - Hattie Green
TTITLE20=Jack Johnson - It Was Early One Morning
TTITLE21=Jesse Lockette - Worry Blues
TTITLE22=Smith Casey - I Wouldn't Mind Dyin' If Dyin' Was All
TTITLE23=Smith Casey - When I Git Home
TTITLE24=Smith Casey - Grey Horse Blues
TTITLE25=Smith Casey - Shorty George
TTITLE26=Smith Casey - West Texas Blues
TTITLE27=Smith Casey - Santa Fe Blues
TTITLE28=Smith Casey - Hesitating Blues
TTITLE29=Smith Casey - Jack O'Diamonds
TTITLE30=Smith Casey - Mourning Blues
TTITLE31=Smith Casey - Two White Horses Standing In Line
TTITLE32=Smith Casey - East Texas Rag (Country Rag)
EXTD=
EXTT0=
EXTT1=
EXTT2=
EXTT3=
EXTT4=
EXTT5=
EXTT6=
EXTT7=
EXTT8=
EXTT9=
EXTT10=
EXTT11=
EXTT12=
EXTT13=
EXTT14=
EXTT15=
EXTT16=
EXTT17=
EXTT18=
EXTT19=
EXTT20=
EXTT21=
EXTT22=
EXTT23=
EXTT24=
EXTT25=
EXTT26=
EXTT27=
EXTT28=
EXTT29=
EXTT30=
EXTT31=
EXTT32=
PLAYORDER=
